<?xml version="1.0" standalone="no"?>
<!DOCTYPE svg PUBLIC "-//W3C//DTD SVG 20010904//EN"
 "http://www.w3.org/TR/2001/REC-SVG-20010904/DTD/svg10.dtd">
<svg version="1.0" xmlns="http://www.w3.org/2000/svg"
 width="512.000000pt" height="512.000000pt" viewBox="0 0 512.000000 512.000000"
 preserveAspectRatio="xMidYMid meet">
<metadata>
Created by potrace 1.11, written by Peter Selinger 2001-2013
</metadata>
<g transform="translate(0.000000,512.000000) scale(0.100000,-0.100000)"
fill="#000000" stroke="none">
<path d="M500 2505 l0 -1975 810 0 c512 0 846 4 907 11 140 15 274 53 389 109
332 161 543 456 634 885 31 144 39 447 16 605 -49 339 -170 596 -372 791 -126
121 -245 193 -412 249 -160 53 -235 60 -689 60 l-413 0 0 620 0 620 -435 0
-435 0 0 -1975z m1515 -100 c99 -26 162 -61 224 -122 96 -97 140 -222 141
-399 0 -223 -91 -394 -253 -474 -100 -49 -185 -59 -494 -60 l-273 0 0 535 0
535 298 0 c236 0 310 -3 357 -15z"/>
<path d="M3760 2505 l0 -1975 435 0 435 0 0 1975 0 1975 -435 0 -435 0 0
-1975z"/>
</g>
</svg>
